<svg width="2000" height="1334" viewBox="0 0 2000 1334" fill="none" xmlns="http://www.w3.org/2000/svg">
<g clip-path="url(#clip0)">
<path d="M1999.97 0H0.0249023V1333.3H1999.97V0Z" fill="white"/>
<path d="M76.6739 579.159C74.0073 528.494 33.8314 478.504 -26.8338 482.06C-67.4994 484.504 -93.7663 495.828 -119.543 532.494C-131.099 548.938 -58.2222 542.136 -59.9999 562.802C-2.12372 562.802 -3.2903 627.603 -43.9999 627.603C-24.0004 737.822 30.1751 770.71 54.8412 667.38C58.8411 651.602 77.5628 595.159 76.6739 579.159Z" fill="#F6724C" fill-opacity="0.8"/>
<path d="M71.3021 1200.67C41.9695 1178.67 1.97054 1171.11 -36.4729 1193.56C-64.4722 1209.78 -78.9163 1232.22 -83.3607 1256.22C-84.9162 1261.55 -86.0273 1266.67 -86.6939 1271.78C-104.916 1350.44 -11.8069 1447.11 74.6354 1379.77C138.856 1329.55 131.745 1245.78 71.3021 1200.67Z" fill="#F6724C" fill-opacity="0.8"/>
<path d="M1217.55 1307.3C1201.77 1231.3 1080.66 1190.19 1023.11 1269.75C998.222 1294.86 994.889 1328.19 1006.22 1357.97C1010.22 1374.63 1018.44 1388.85 1029.33 1400.41C1072.44 1445.52 1148 1458.63 1191.11 1404.63C1213.11 1377.08 1230.88 1342.63 1217.55 1307.3Z" fill="#F6724C" fill-opacity="0.8"/>
<path d="M1217.55 -25.9993C1201.77 -101.997 1080.66 -143.108 1023.11 -63.5539C998.222 -38.4435 994.889 -5.11095 1006.22 24.6661C1010.22 41.3323 1018.44 55.5542 1029.33 67.1095C1072.44 112.219 1148 125.33 1191.11 71.3316C1213.11 43.7767 1230.88 9.33313 1217.55 -25.9993Z" fill="#F6724C" fill-opacity="0.8"/>
<path d="M1994.16 1129.08C1944.61 1131.97 1898.17 1145.75 1877.06 1194.64C1869.72 1211.75 1860.83 1229.53 1861.5 1248.64C1865.94 1372.19 2052.83 1389.52 2081.05 1271.08C2085.05 1254.86 2055.5 1125.53 1994.16 1129.08Z" fill="#F6724C" fill-opacity="0.8"/>
<path d="M2116.04 294.057C2106.04 259.169 2076.27 230.058 2041.82 217.614C2005.82 204.726 1956.49 211.17 1926.71 235.614C1893.6 262.724 1894.49 306.056 1901.38 344.5C1922.71 464.275 2088.71 450.497 2116.93 341.611C2121.15 325.389 2120.49 309.167 2116.04 294.057Z" fill="#F6724C" fill-opacity="0.8"/>
<path d="M1679.83 -61.7774C1598.73 -58.8886 1515.17 31.1092 1584.06 103.33C1628.06 149.773 1704.94 149.328 1749.83 104.441C1795.39 59.1085 1790.72 -13.5564 1734.5 -48C1717.83 -58.2219 1698.95 -62.444 1679.83 -61.7774Z" fill="#FFC529" fill-opacity="0.8"/>
<path d="M859.781 1197.84C822.227 1165.62 766.895 1150.06 722.674 1176.73C682.008 1201.39 720.451 1399.17 794.227 1384.5C847.115 1374.06 894.892 1334.72 901.114 1286.06C905.336 1254.5 887.336 1221.62 859.781 1197.84Z" fill="#F6724C" fill-opacity="0.8"/>
<path d="M131.158 147.5C102.56 90.5164 12.0921 76.326 -53.0776 95.1727C-82.7753 103.598 -110.548 120.006 -124.022 143.952C-182.317 248.828 7.76498 290.109 100.158 223.37C126.281 204.523 139.407 215.126 139.682 185.193C139.682 171.003 136.657 158.364 131.158 147.5Z" fill="#FFC529" fill-opacity="0.8"/>
<path d="M1679.45 1290.79C1650.85 1233.81 1560.39 1219.61 1495.22 1238.46C1465.52 1246.89 1437.75 1263.29 1424.27 1287.24C1365.98 1392.12 1533.58 1419.85 1625.98 1353.11C1652.1 1334.26 1687.7 1358.41 1687.98 1328.48C1687.98 1314.29 1684.95 1301.65 1679.45 1290.79Z" fill="#FFC529" fill-opacity="0.8"/>
<path d="M619.735 1328.48C591.137 1271.5 500.67 1134.59 435.5 1153.43C405.802 1161.86 378.03 1300.99 364.556 1324.93C306.26 1429.81 320.163 1524.17 412.556 1457.43C438.679 1438.59 412.556 1426.45 435.5 1426.45C481.22 1350.7 625.235 1339.35 619.735 1328.48Z" fill="#FFC529" fill-opacity="0.8"/>
<path d="M2193.74 863.327C2165.14 806.344 2074.67 792.153 2009.5 811C1979.8 819.425 1952.03 835.833 1938.56 859.779C1880.26 964.656 2047.87 992.389 2140.26 925.65C2166.38 906.803 2201.99 930.953 2202.26 901.02C2202.26 886.83 2199.24 874.192 2193.74 863.327Z" fill="#FFC529" fill-opacity="0.8"/>
<path d="M-93.3999 1056.72C-6.97564 1076.32 106.41 1059.4 150.73 1024.16C186.186 996.021 189.141 960.299 138.542 934.851C32 934.851 -24.7037 894.071 -77.5185 916.99C-88.5985 921.89 -96.3545 928.212 -103.003 934.219C-137.351 964.092 -188.688 1035.06 -93.3999 1056.72Z" fill="#FFC529" fill-opacity="0.8"/>
<path d="M746.169 -22.4921C745.947 -22.7143 745.947 -22.7143 745.725 -22.9365C714.17 -60.4911 660.616 -79.824 609.284 -50.2691C579.285 -32.9362 563.73 -8.71462 558.841 16.8403C546.174 56.8393 562.174 92.8384 590.396 116.393C624.617 153.726 679.949 169.948 733.059 128.615C754.391 112.171 766.391 92.394 771.28 72.1723C784.613 34.8399 771.502 1.06292 746.169 -22.4921Z" fill="#F6724C" fill-opacity="0.8"/>
<path d="M2101.9 552.733C2083.7 545.313 2059.51 550.422 2041.31 555.409C2024.88 559.91 2009.35 565.383 1993.37 570.127C1978.72 574.507 1962.96 578.642 1949.42 584.116C1908.81 600.538 1943.87 638.976 1972.95 652.722C2010.68 670.481 2065.28 672.063 2105.23 655.276C2173.14 626.569 2165.59 578.642 2101.9 552.733Z" fill="#F6724C" fill-opacity="0.8"/>
</g>
<defs>
<clipPath id="clip0">
<rect width="2000" height="1333.3" fill="white"/>
</clipPath>
</defs>
</svg>
