<svg width="1440" height="845" viewBox="0 0 1440 845" fill="none" xmlns="http://www.w3.org/2000/svg">
<path d="M-9.92957 409.339C-58.0702 330.408 -53.1329 496.631 -140.103 270.866C-172.816 185.878 -169.082 136.747 -161.749 102.122C-71.5278 67.2656 -155.631 114.898 -101.196 52.7332C-84.7326 120.348 -140.359 112.403 -58.4268 191.206C-53.7286 256.262 96.228 249.392 105.447 315.233C110.517 351.584 130.772 454.71 88.6865 443.716C27.9892 427.841 47.3673 503.281 -9.92957 409.339Z" fill="#F6724C"/>
<path d="M1445 1.09695C1414.35 5.15395 1387.14 20.9069 1369.95 54.0829C1308.37 172.229 1500 256.721 1597.39 181.298C1644.08 145.019 1666.14 107.308 1616.01 66.494C1599.11 52.651 1580.78 40.2399 1561.3 29.2599C1525.49 8.73395 1482.53 -3.91605 1445 1.09695Z" fill="#FFC529"/>
<path d="M-238.839 794.032C-217.198 834.587 -147.589 859.981 -25.674 832.793C56.0295 814.518 133.581 794.309 174.121 753.877C192.292 735.746 210.794 715.977 207.779 698.288C205.904 687.256 198.335 676.56 189.769 667.044C113.891 584.499 -227.964 657.617 -244.893 752.37C-247.951 766.931 -245.767 781.244 -238.839 794.032Z" fill="#FFC529"/>
</svg>
