<svg width="53" height="18" viewBox="0 0 53 18" fill="none" xmlns="http://www.w3.org/2000/svg">
<path d="M10.812 4.504V13H8.16V8.764L6.852 13H4.572L3.264 8.764V13H0.6V4.504H3.864L5.736 9.604L7.56 4.504H10.812ZM24.7995 13L23.2035 9.952H23.1915V13H20.5275V4.504H24.4875C25.1755 4.504 25.7635 4.628 26.2515 4.876C26.7395 5.116 27.1035 5.448 27.3435 5.872C27.5915 6.288 27.7155 6.76 27.7155 7.288C27.7155 7.856 27.5555 8.36 27.2355 8.8C26.9235 9.24 26.4715 9.556 25.8795 9.748L27.7275 13H24.7995ZM23.1915 8.176H24.2475C24.5035 8.176 24.6955 8.12 24.8235 8.008C24.9515 7.888 25.0155 7.704 25.0155 7.456C25.0155 7.232 24.9475 7.056 24.8115 6.928C24.6835 6.8 24.4955 6.736 24.2475 6.736H23.1915V8.176ZM34.3986 9.556C34.3986 9.74 34.3866 9.916 34.3626 10.084H30.0786C30.1186 10.668 30.3626 10.96 30.8106 10.96C31.0986 10.96 31.3066 10.828 31.4346 10.564H34.2546C34.1586 11.044 33.9546 11.476 33.6426 11.86C33.3386 12.236 32.9506 12.536 32.4786 12.76C32.0146 12.976 31.5026 13.084 30.9426 13.084C30.2706 13.084 29.6706 12.944 29.1426 12.664C28.6226 12.384 28.2146 11.984 27.9186 11.464C27.6306 10.936 27.4866 10.32 27.4866 9.616C27.4866 8.912 27.6306 8.3 27.9186 7.78C28.2146 7.252 28.6226 6.848 29.1426 6.568C29.6706 6.288 30.2706 6.148 30.9426 6.148C31.6146 6.148 32.2106 6.288 32.7306 6.568C33.2586 6.84 33.6666 7.232 33.9546 7.744C34.2506 8.256 34.3986 8.86 34.3986 9.556ZM31.6986 8.92C31.6986 8.696 31.6266 8.528 31.4826 8.416C31.3386 8.296 31.1586 8.236 30.9426 8.236C30.4706 8.236 30.1946 8.464 30.1146 8.92H31.6986ZM37.5331 13.084C36.8931 13.084 36.3251 12.98 35.8291 12.772C35.3411 12.564 34.9531 12.276 34.6651 11.908C34.3771 11.54 34.2131 11.124 34.1731 10.66H36.7291C36.7611 10.86 36.8451 11.008 36.9811 11.104C37.1251 11.2 37.3051 11.248 37.5211 11.248C37.6571 11.248 37.7651 11.22 37.8451 11.164C37.9251 11.1 37.9651 11.024 37.9651 10.936C37.9651 10.784 37.8811 10.676 37.7131 10.612C37.5451 10.548 37.2611 10.476 36.8611 10.396C36.3731 10.3 35.9691 10.196 35.6491 10.084C35.3371 9.972 35.0611 9.78 34.8211 9.508C34.5891 9.236 34.4731 8.86 34.4731 8.38C34.4731 7.964 34.5811 7.588 34.7971 7.252C35.0211 6.908 35.3491 6.64 35.7811 6.448C36.2131 6.248 36.7371 6.148 37.3531 6.148C38.2651 6.148 38.9771 6.372 39.4891 6.82C40.0091 7.268 40.3211 7.852 40.4251 8.572H38.0611C38.0211 8.388 37.9371 8.248 37.8091 8.152C37.6811 8.048 37.5091 7.996 37.2931 7.996C37.1571 7.996 37.0531 8.024 36.9811 8.08C36.9091 8.128 36.8731 8.204 36.8731 8.308C36.8731 8.444 36.9571 8.548 37.1251 8.62C37.2931 8.684 37.5611 8.752 37.9291 8.824C38.4171 8.92 38.8291 9.028 39.1651 9.148C39.5011 9.268 39.7931 9.476 40.0411 9.772C40.2891 10.06 40.4131 10.46 40.4131 10.972C40.4131 11.372 40.2971 11.732 40.0651 12.052C39.8331 12.372 39.4971 12.624 39.0571 12.808C38.6251 12.992 38.1171 13.084 37.5331 13.084ZM44.9623 10.732V13H43.9543C42.0983 13 41.1703 12.076 41.1703 10.228V8.452H40.3303V6.232H41.1703V4.6H43.8343V6.232H44.9383V8.452H43.8343V10.276C43.8343 10.436 43.8703 10.552 43.9423 10.624C44.0223 10.696 44.1503 10.732 44.3263 10.732H44.9623ZM48.4729 13.084C47.7929 13.084 47.1809 12.944 46.6369 12.664C46.0929 12.384 45.6649 11.984 45.3529 11.464C45.0489 10.936 44.8969 10.32 44.8969 9.616C44.8969 8.912 45.0489 8.3 45.3529 7.78C45.6649 7.252 46.0929 6.848 46.6369 6.568C47.1809 6.288 47.7929 6.148 48.4729 6.148C49.1529 6.148 49.7649 6.288 50.3089 6.568C50.8529 6.848 51.2769 7.252 51.5809 7.78C51.8929 8.3 52.0489 8.912 52.0489 9.616C52.0489 10.32 51.8929 10.936 51.5809 11.464C51.2769 11.984 50.8529 12.384 50.3089 12.664C49.7649 12.944 49.1529 13.084 48.4729 13.084ZM48.4729 10.78C48.7209 10.78 48.9289 10.684 49.0969 10.492C49.2649 10.292 49.3489 10 49.3489 9.616C49.3489 9.232 49.2649 8.944 49.0969 8.752C48.9289 8.552 48.7209 8.452 48.4729 8.452C48.2249 8.452 48.0169 8.552 47.8489 8.752C47.6809 8.944 47.5969 9.232 47.5969 9.616C47.5969 10 47.6769 10.292 47.8369 10.492C48.0049 10.684 48.2169 10.78 48.4729 10.78Z" fill="white"/>
<path d="M14.8049 9.96846C14.8773 9.93312 14.9083 9.8481 14.8742 9.77818L12.4804 4.8731C12.4206 4.75069 12.2695 4.70164 12.1423 4.76368C12.0324 4.81735 11.9698 4.93481 11.9893 5.05177L12.5005 8.11832C12.6503 9.01536 13.2044 9.78921 14.011 10.2272C14.0894 10.2697 14.1851 10.2709 14.267 10.231C14.0455 10.3391 14.4927 10.3168 14.267 10.231C14.1955 10.4618 14.4756 10.0004 14.267 10.231C14.3384 10.0006 14.9301 10.1705 14.8049 9.96846Z" fill="white"/>
<path d="M18.2035 4.94637C18.1085 4.9062 17.9994 4.94927 17.9598 5.04294L17.0785 7.12603C17.0388 7.21998 16.9292 7.26328 16.8336 7.22284C16.738 7.18239 16.6929 7.07364 16.7326 6.97968L17.6139 4.89659C17.6535 4.80293 17.6084 4.69463 17.5135 4.65448L17.5115 4.65362C17.4166 4.61346 17.3076 4.65657 17.268 4.75024L16.3867 6.83333C16.3469 6.92729 16.2374 6.97058 16.1417 6.9301C16.0461 6.88965 16.0009 6.7809 16.0407 6.68694L16.9219 4.60385C16.9616 4.51018 16.9166 4.40194 16.8217 4.36177L16.8196 4.36089C16.7247 4.32073 16.6157 4.36384 16.576 4.45751L15.6947 6.5406C15.655 6.63456 15.5455 6.67785 15.4499 6.63741C15.3543 6.59696 15.3091 6.4882 15.3488 6.39424L16.2301 4.31116C16.2697 4.21749 16.2247 4.1092 16.1297 4.06904C16.0396 4.03089 15.9362 4.07164 15.8989 4.16C15.6758 4.6872 14.9777 6.33741 14.948 6.40748C14.6574 7.09442 14.7338 7.56641 15.0095 7.88896C15.232 8.14936 15.2716 8.51611 15.1099 8.81257L12.4708 13.6488C12.3691 13.8356 12.3523 14.057 12.4247 14.2584C12.4972 14.4601 12.6521 14.6231 12.8513 14.7074C13.0507 14.7917 13.2755 14.7893 13.4707 14.7009C13.6657 14.6127 13.813 14.4464 13.8761 14.2434L15.5092 8.98152C15.6094 8.65904 15.9005 8.43223 16.242 8.41036C16.6655 8.3836 17.0573 8.10975 17.3479 7.42282C17.3776 7.35275 18.0757 5.70256 18.2988 5.17533C18.3362 5.087 18.2936 4.98451 18.2035 4.94637Z" fill="white"/>
</svg>
